<?xml version="1.0" encoding="UTF-8"?>
<!DOCTYPE svg PUBLIC "-//W3C//DTD SVG 1.1//EN" "http://www.w3.org/Graphics/SVG/1.1/DTD/svg11.dtd">
<!-- Creator: CorelDRAW X8 -->
<svg xmlns="http://www.w3.org/2000/svg" xml:space="preserve" width="1.83164in" height="1.90881in" version="1.1" style="shape-rendering:geometricPrecision; text-rendering:geometricPrecision; image-rendering:optimizeQuality; fill-rule:evenodd; clip-rule:evenodd"
viewBox="0 0 303 316"
 xmlns:xlink="http://www.w3.org/1999/xlink">
 <defs>
  <style type="text/css">
   <![CDATA[
    .fil3 {fill:none;fill-rule:nonzero}
    .fil0 {fill:#FEFEFE}
    .fil1 {fill:#0A94D1}
    .fil2 {fill:#0A94D1;fill-rule:nonzero}
   ]]>
  </style>
   <clipPath id="id0" style="clip-rule:nonzero">
    <path d="M96 114l0 60 -19 0 0 -60 -17 0 0 -18 53 0 0 18 -17 0zm24 60l0 -78 14 0c8,0 14,0 18,1 4,1 8,3 11,5 6,3 11,8 14,14 4,6 5,12 5,19 0,6 -1,12 -4,18 -3,5 -7,10 -13,14 -3,2 -6,3 -10,5 -4,1 -8,1 -13,2l0 -19c6,0 11,-2 15,-6 4,-4 5,-9 5,-15 0,-5 -2,-10 -6,-14 -4,-4 -9,-6 -15,-6 0,0 -1,0 -1,0 0,0 -1,0 -1,0l0 60 -19 0zm71 -78l19 0 0 51c0,3 1,5 2,6 1,2 3,2 6,2l15 0 0 19 -15 0c-9,0 -16,-3 -21,-7 -4,-4 -6,-11 -6,-19l0 -52z"/>
   </clipPath>
 </defs>
 <g id="Layer_x0020_1">
  <metadata id="CorelCorpID_0Corel-Layer"/>
  <path class="fil0" d="M115 27c19,19 55,22 113,6 47,-11 41,32 37,65 -1,43 -41,187 -57,157 -7,-13 -31,-69 -57,-47 48,-1 37,113 78,78 23,-16 62,-136 69,-188 9,-50 8,-88 -20,-96 -45,-12 -89,34 -163,25z"/>
  <path class="fil1" d="M182 65c-19,12 -50,13 -105,-9 -32,-12 -47,3 -48,42 -1,28 30,155 57,183 33,33 21,-68 72,-63 -37,20 -28,135 -80,85 -23,-29 -52,-87 -76,-205 -4,-40 -8,-100 49,-92 47,11 45,54 131,59z"/>
  <path class="fil2" d="M96 114l0 60 -19 0 0 -60 -17 0 0 -18 53 0 0 18 -17 0zm24 60l0 -78 14 0c8,0 14,0 18,1 4,1 8,3 11,5 6,3 11,8 14,14 4,6 5,12 5,19 0,6 -1,12 -4,18 -3,5 -7,10 -13,14 -3,2 -6,3 -10,5 -4,1 -8,1 -13,2l0 -19c6,0 11,-2 15,-6 4,-4 5,-9 5,-15 0,-5 -2,-10 -6,-14 -4,-4 -9,-6 -15,-6 0,0 -1,0 -1,0 0,0 -1,0 -1,0l0 60 -19 0zm71 -78l19 0 0 51c0,3 1,5 2,6 1,2 3,2 6,2l15 0 0 19 -15 0c-9,0 -16,-3 -21,-7 -4,-4 -6,-11 -6,-19l0 -52z"/>
  <g style="clip-path:url(#id0)">
   <g id="_2623085618128">
    <polygon id="1" class="fil0" points="306,68 180,66 113,204 270,204 "/>
   </g>
  </g>
  <path class="fil3" d="M96 114l0 60 -19 0 0 -60 -17 0 0 -18 53 0 0 18 -17 0zm24 60l0 -78 14 0c8,0 14,0 18,1 4,1 8,3 11,5 6,3 11,8 14,14 4,6 5,12 5,19 0,6 -1,12 -4,18 -3,5 -7,10 -13,14 -3,2 -6,3 -10,5 -4,1 -8,1 -13,2l0 -19c6,0 11,-2 15,-6 4,-4 5,-9 5,-15 0,-5 -2,-10 -6,-14 -4,-4 -9,-6 -15,-6 0,0 -1,0 -1,0 0,0 -1,0 -1,0l0 60 -19 0zm71 -78l19 0 0 51c0,3 1,5 2,6 1,2 3,2 6,2l15 0 0 19 -15 0c-9,0 -16,-3 -21,-7 -4,-4 -6,-11 -6,-19l0 -52z"/>
 </g>
</svg>
