<?xml version="1.0" encoding="UTF-8"?>
<!DOCTYPE svg PUBLIC "-//W3C//DTD SVG 1.1//EN" "http://www.w3.org/Graphics/SVG/1.1/DTD/svg11.dtd">
<!-- Creator: CorelDRAW X8 -->
<svg xmlns="http://www.w3.org/2000/svg" xml:space="preserve" width="3.61933in" height="1.90881in" version="1.1" style="shape-rendering:geometricPrecision; text-rendering:geometricPrecision; image-rendering:optimizeQuality; fill-rule:evenodd; clip-rule:evenodd"
viewBox="0 0 3876 2044"
 xmlns:xlink="http://www.w3.org/1999/xlink">
 <defs>
  <style type="text/css">
   <![CDATA[
    .fil2 {fill:#0A94D1}
    .fil0 {fill:#6F738A}
    .fil3 {fill:#0A94D1;fill-rule:nonzero}
    .fil1 {fill:#6F738A;fill-rule:nonzero}
   ]]>
  </style>
 </defs>
 <g id="Layer_x0020_1">
  <metadata id="CorelCorpID_0Corel-Layer"/>
  <path class="fil0" d="M1419 178c120,123 356,142 730,37 117,-29 213,-21 236,116l4 303 212 0c57,-321 53,-572 -124,-622 -292,-74 -582,223 -1058,166z"/>
  <path class="fil0" d="M2247 1277l177 0c-54,182 -126,368 -268,575 -265,229 -194,-508 -506,-504 172,-145 323,220 367,307 108,191 205,-299 230,-378z"/>
  <path class="fil1" d="M2697 1306l104 0 0 278c0,14 4,25 11,32 8,8 18,11 33,11l81 0 0 98 -83 0c-49,0 -86,-12 -110,-35 -24,-22 -36,-58 -36,-105l0 -279zm259 419l0 -248c0,-54 14,-97 43,-130 29,-32 68,-48 116,-48 48,0 87,16 116,49 30,32 44,75 44,129l0 248 -103 0 0 -155 -94 0 0 -99 94 0 0 -4c0,-21 -6,-37 -16,-48 -10,-12 -24,-18 -41,-18 -18,0 -32,6 -41,18 -10,12 -14,30 -14,53l0 253 -104 0zm374 -1l0 -274c0,-45 14,-82 42,-110 28,-28 64,-42 109,-42 40,0 73,12 100,37 27,24 40,53 40,89 0,16 -4,31 -11,43 -8,13 -19,24 -35,33 22,10 39,24 50,42 12,17 18,37 18,61 0,15 -3,30 -8,44 -5,13 -13,26 -23,37 -14,14 -31,25 -50,31 -19,7 -46,10 -82,10l-29 0 0 -94 36 0c15,0 27,-3 36,-10 8,-7 13,-16 13,-29 0,-12 -5,-22 -13,-29 -9,-7 -21,-10 -36,-10l-36 0 0 -84 16 0c17,0 30,-3 38,-10 9,-6 13,-16 13,-30 0,-11 -3,-20 -11,-28 -7,-7 -17,-11 -28,-11 -14,0 -25,5 -33,15 -8,10 -12,24 -12,43l0 276 -104 0z"/>
  <path class="fil1" d="M0 779l0 -58 298 0 0 58 -115 0 0 408 -68 0 0 -408 -115 0 0 0zm287 167c0,-34 6,-65 17,-93 12,-28 29,-52 52,-72 23,-21 47,-37 73,-49 25,-11 51,-17 78,-19 1,0 2,0 2,0 1,0 2,0 2,-1 1,0 1,0 2,0 1,0 1,0 2,0 1,0 1,0 2,0 0,0 1,0 2,0 0,0 1,0 1,0 1,0 2,0 2,0 6,0 12,0 18,1 6,0 12,1 18,2 6,1 12,2 19,3 6,1 13,3 19,5 21,6 41,15 60,28 19,12 38,27 55,45 18,19 31,41 41,67 9,26 14,56 16,90 0,32 -6,61 -16,89 -11,28 -27,54 -47,78 -21,25 -46,43 -74,54 -29,12 -62,18 -98,18 -34,0 -66,-5 -95,-15 -29,-10 -55,-26 -79,-46 -24,-21 -42,-46 -54,-77 -12,-31 -18,-66 -18,-106l0 -2zm68 0c0,2 0,4 0,4 0,1 0,2 0,3 0,1 0,1 0,1 0,1 0,1 0,1 0,1 0,1 0,1 0,1 0,1 0,2 -1,24 3,46 11,66 8,21 20,40 37,59 16,17 34,30 55,39 21,9 44,14 69,14 5,0 10,-1 16,-1 6,0 11,-1 17,-2 6,-1 12,-2 19,-4 6,-1 13,-3 19,-6 13,-5 25,-12 37,-20 11,-8 22,-19 33,-31 11,-13 19,-29 24,-48 5,-18 8,-40 8,-66 0,-23 -3,-46 -10,-67 -7,-22 -18,-43 -32,-62 -14,-19 -32,-34 -55,-44 -22,-10 -50,-15 -81,-15 -26,0 -49,5 -70,14 -21,9 -38,23 -53,42 -15,18 -26,38 -33,58 -8,20 -11,42 -11,64l0 -2zm402 -167l0 -58 298 0 0 58 -115 0 0 408 -68 0 0 -408 -115 0 0 0zm297 408l0 -309c0,-23 3,-44 10,-64 7,-19 17,-37 31,-53 14,-16 31,-28 50,-37 19,-8 41,-12 66,-12 24,0 45,4 65,12 19,8 36,20 51,36 16,16 27,34 35,56 7,21 11,45 11,72 0,0 0,1 0,1 0,0 0,0 0,0 0,1 0,1 0,1 0,1 0,1 0,1 0,1 0,1 0,2 0,0 0,1 0,1 0,0 0,1 0,2 0,0 0,1 0,2 0,0 0,1 0,1 0,1 0,1 0,2l0 286 -63 0 0 -215 -173 0 0 -62 173 0c0,0 0,0 0,-1 0,-1 0,-1 0,-2 0,0 0,-1 0,-1 0,0 0,-1 1,-1 0,0 0,-1 0,-1 0,0 0,-1 0,-1 0,-1 0,-2 0,-3 0,0 0,-1 0,-1 0,-1 0,-1 0,-2 0,0 0,-1 0,-1 0,0 0,0 0,-1 0,0 0,-1 0,-1 0,-21 -2,-39 -7,-54 -4,-16 -10,-29 -18,-39 -9,-10 -19,-18 -31,-23 -11,-5 -25,-8 -39,-8 -14,0 -26,2 -37,5 -10,4 -19,9 -26,15 -7,7 -13,14 -18,22 -4,7 -8,15 -11,23 -1,4 -2,8 -3,12 -1,4 -2,8 -3,12 0,4 -1,7 -1,11 0,3 0,6 0,9l0 308 -63 0 0 0zm360 -466l62 0 0 304c0,15 2,29 5,42 3,12 8,23 13,33 7,10 15,18 27,23 11,5 26,8 43,8 0,0 1,0 1,0 1,0 1,0 2,0 0,0 0,0 1,0 0,0 0,0 1,0 0,0 0,0 0,0 0,-1 1,-1 1,-1 0,0 1,0 1,0 1,0 1,0 2,0 0,0 0,0 1,0 0,0 0,0 1,0 0,0 0,0 0,0 0,0 1,0 1,0l52 -1 0 58 -73 0c-4,0 -8,0 -13,-1 -4,0 -9,0 -14,-1 -5,-1 -10,-2 -15,-3 -5,-1 -10,-3 -15,-5 -11,-4 -21,-9 -31,-16 -9,-7 -18,-15 -27,-25 -9,-9 -15,-21 -19,-35 -5,-14 -7,-30 -7,-49l0 -331 0 0z"/>
  <path class="fil2" d="M1854 421c-126,78 -326,85 -684,-58 -205,-81 -302,18 -307,269l-179 0 0 -315c13,-224 119,-307 320,-278 301,69 292,350 850,382z"/>
  <path class="fil2" d="M1180 1963c-149,-191 -266,-388 -347,-690l145 4c56,210 145,386 253,544 215,213 134,-444 463,-411 -237,130 -177,878 -514,553z"/>
  <path class="fil3" d="M1680 1193l0 -464 85 0c45,0 81,3 107,8 26,6 49,15 69,27 36,23 64,51 84,85 19,34 29,71 29,111 0,39 -9,75 -27,109 -18,33 -43,61 -75,84 -18,12 -38,21 -61,28 -22,6 -48,10 -77,12l0 -112c36,-1 65,-13 88,-36 22,-22 33,-51 33,-85 0,-35 -12,-64 -36,-87 -24,-23 -54,-35 -92,-35 -1,0 -3,0 -6,1 -2,0 -4,0 -5,0l0 354 -116 0zm711 0l-12 0c-40,0 -75,-3 -106,-10 -30,-6 -55,-16 -76,-29 -34,-22 -60,-50 -79,-83 -18,-34 -27,-71 -27,-111 0,-39 9,-76 27,-109 18,-34 45,-61 79,-83 21,-13 46,-23 76,-29 31,-7 66,-10 106,-10l12 0 0 105c-3,0 -6,0 -9,0 -4,0 -8,0 -15,0 -40,0 -73,6 -97,18 -24,11 -41,30 -51,55l172 0 0 103 -174 0c7,26 24,45 50,58 25,13 59,19 103,19 5,0 10,0 13,0 3,0 6,0 8,0l0 106zm62 0l0 -393c0,-25 6,-45 19,-59 13,-15 30,-22 52,-22 17,0 32,5 45,15 13,10 27,29 42,58l62 110c12,23 22,43 30,58 7,16 13,31 17,44 -3,-28 -5,-54 -6,-77 -2,-23 -2,-41 -2,-53l0 -145 111 0 0 408c0,19 -5,34 -16,46 -10,11 -25,17 -42,17 -15,0 -28,-4 -38,-12 -11,-7 -22,-22 -34,-44l-91 -163c-2,-4 -5,-9 -9,-17 -20,-36 -34,-65 -41,-87 4,31 7,59 9,84 2,26 3,49 3,72l0 160 -111 0zm627 -356l0 356 -115 0 0 -356 -100 0 0 -108 315 0 0 108 -100 0zm127 356l0 -274c0,-61 16,-109 48,-144 32,-36 75,-54 128,-54 54,0 96,18 129,54 32,35 48,84 48,144l0 274 -114 0 0 -172 -104 0 0 -109 104 0 0 -5c0,-23 -6,-40 -17,-54 -12,-13 -27,-19 -46,-19 -20,0 -35,6 -46,20 -10,13 -15,33 -15,59l0 280 -115 0zm415 -464l116 0 0 308c0,16 4,28 12,36 8,8 20,12 36,12l90 0 0 108 -92 0c-55,0 -95,-13 -122,-38 -27,-26 -40,-65 -40,-117l0 -309z"/>
 </g>
</svg>
